<?xml version="1.0" encoding="UTF-8"?>
<svg xmlns="http://www.w3.org/2000/svg" xmlns:xlink="http://www.w3.org/1999/xlink" width="24px" height="24px" viewBox="0 0 24 24" version="1.1">
<g id="surface1">
<path style="fill-rule:nonzero;fill:rgb(0%,58.823529%,85.882353%);fill-opacity:1;stroke-width:5;stroke-linecap:square;stroke-linejoin:miter;stroke:rgb(0%,54.901961%,78.431373%);stroke-opacity:1;stroke-miterlimit:4;" d="M 162.597656 779.071184 C 120.068359 779.901263 68.652344 799.432513 11.71875 848.846575 L 26.904297 881.707903 L 35.15625 876.922747 L 35.15625 859.979388 C 40.039062 850.164934 46.875 841.131731 60.302734 834.784075 L 60.302734 1024.188372 L 53.320312 1024.188372 L 53.369141 1030.975481 L 100.634766 1030.975481 L 100.634766 1024.383684 L 93.554688 1024.383684 L 93.554688 976.629778 C 357.275391 1035.760638 321.826172 776.141497 162.597656 779.071184 Z M 160.644531 797.332903 C 288.183594 798.211809 291.113281 1022.772356 93.554688 955.438372 L 93.554688 814.520403 C 118.652344 802.313372 141.113281 797.186419 160.644531 797.332903 Z M 160.644531 797.332903 " transform="matrix(0.08,0,0,0.08,0,-60.188976)"/>
</g>
</svg>
