<svg fill="#000000" xmlns="http://www.w3.org/2000/svg"  viewBox="0 0 50 50" width="24px" height="24px"><path d="M21.347,26.275c-3.66-0.941-7.738,0.836-9.307,3.972c-1.569,3.24-0.105,6.794,3.66,7.944c3.765,1.254,8.261-0.627,9.83-4.077C27.098,30.77,25.112,27.216,21.347,26.275z M18.309,34.207c-0.72,1.059-2.365,1.588-3.6,1.059c-1.234-0.529-1.543-1.8-0.823-2.753c0.72-1.059,2.263-1.482,3.497-1.059C18.721,31.878,19.132,33.149,18.309,34.207z M20.824,32.338c-0.578,0-1.046-0.468-1.046-1.045c0-0.577,0.468-1.045,1.046-1.045c0.578,0,1.046,0.468,1.046,1.045C21.87,31.87,21.402,32.338,20.824,32.338z"/><path d="M36.221,24.872c-0.628-0.209-1.047-0.314-0.733-1.151C35.695,23.22,36,22.266,36,21c0-1.438-1-2.684-3-2.906c-0.994-0.11-5-0.094-7.663,1.022c0,0-1.465,0.628-1.047-0.523c0.733-2.302,0.628-4.186-0.523-5.233c-2.512-2.512-9.209,0.105-14.965,5.756C4.512,23.407,2,27.907,2,31.779c0,7.535,9.628,12.035,19.151,12.035c12.349,0,20.616-7.116,20.616-12.767C41.767,27.593,38.837,25.709,36.221,24.872z M20.314,41.721c-7.803,0-14.128-3.983-14.128-8.895c0-4.913,6.325-8.895,14.128-8.895s14.128,3.983,14.128,8.895C34.442,37.738,28.117,41.721,20.314,41.721z"/><path fill="none" stroke="#000000" stroke-linecap="round" stroke-miterlimit="10" stroke-width="2" d="M46.267,23.096C46.733,21.816,47,20.441,47,19c0-6.627-5.373-12-12-12c-0.71,0-1.401,0.073-2.077,0.192"/><path fill="none" stroke="#000000" stroke-linecap="round" stroke-miterlimit="10" stroke-width="2" d="M40.634,21.048C40.866,20.408,41,19.72,41,19c0-3.314-2.686-6-6-6c-0.355,0-0.701,0.037-1.039,0.096"/></svg>